<svg width="585" height="489" viewBox="0 0 585 489" fill="none" xmlns="http://www.w3.org/2000/svg">
<g clip-path="url(#clip0_4222_5594)">
<g opacity="0.41">
<path d="M584.706 312.082C585.267 302.528 585.009 292.943 583.935 283.432C578.882 238.757 555.973 196.636 522.243 166.92C510.229 156.317 496.524 146.816 488.697 132.831C475.525 109.253 476.517 82.1646 460.167 58.899C443.596 35.3918 420.112 17.6366 392.982 8.10431C312.718 -19.7188 200.34 25.5811 210.463 122.319C210.463 122.662 210.499 123.158 210.573 123.807C210.879 128.558 210.219 133.322 208.633 137.81C207.047 142.299 204.567 146.419 201.344 149.921C198.12 153.424 194.221 156.236 189.88 158.188C185.539 160.14 180.848 161.192 176.09 161.279C102.035 163.024 38.3044 220.086 24.6545 292.492C15.873 339.023 30.1659 390.02 64.2632 422.971C89.6525 447.541 123.731 461.048 157.829 470.31C226.189 488.908 298.131 492.804 368.604 485.692C434.594 479.04 504.184 460.074 546.806 409.298C569.508 381.781 582.792 347.708 584.706 312.082Z" fill="#C5D9FF"/>
</g>
<g opacity="0.88">
<path d="M523.805 316.64C524.246 309.157 524.044 301.649 523.199 294.201C518.823 258.879 501.629 226.395 474.882 202.921C465.458 194.615 454.674 187.172 448.593 176.219C438.268 157.842 439.058 136.524 426.235 118.294C413.254 99.8864 394.863 85.9802 373.619 78.5075C310.734 56.7121 222.698 92.1985 230.634 167.986C230.634 168.244 230.634 168.648 230.634 169.144C230.884 172.871 230.374 176.61 229.134 180.134C227.895 183.658 225.953 186.893 223.425 189.643C220.898 192.392 217.838 194.6 214.432 196.131C211.026 197.661 207.344 198.484 203.61 198.548C145.593 199.926 95.6599 244.674 84.9678 301.35C78.0969 337.792 89.3586 377.744 116.015 403.546C135.948 422.676 162.697 433.298 189.391 440.576C242.943 455.131 299.307 458.2 354.513 452.613C406.21 447.412 460.718 432.545 494.135 392.758C511.903 371.209 522.301 344.532 523.805 316.64Z" fill="#C5D9FF"/>
</g>
<path opacity="0.31" d="M568.333 76.3462C570.641 66.6089 564.621 56.8434 554.887 54.5344C545.152 52.2254 535.39 58.2473 533.082 67.9846C530.774 77.722 536.794 87.4875 546.528 89.7965C556.262 92.1055 566.024 86.0836 568.333 76.3462Z" fill="#C5D9FF"/>
<path opacity="0.31" d="M167.755 65.9901C175.956 57.7871 175.956 44.4873 167.755 36.2843C159.555 28.0813 146.26 28.0813 138.059 36.2843C129.859 44.4873 129.859 57.7871 138.059 65.9901C146.26 74.1932 159.555 74.1932 167.755 65.9901Z" fill="#C5D9FF"/>
<path opacity="0.31" d="M27.1162 481.833C42.092 481.833 54.2323 469.689 54.2323 454.708C54.2323 439.727 42.092 427.583 27.1162 427.583C12.1403 427.583 0 439.727 0 454.708C0 469.689 12.1403 481.833 27.1162 481.833Z" fill="#C5D9FF"/>
<path d="M241.161 240.614C294.256 240.614 337.298 197.558 337.298 144.445C337.298 91.3333 294.256 48.2773 241.161 48.2773C188.066 48.2773 145.023 91.3333 145.023 144.445C145.023 197.558 188.066 240.614 241.161 240.614Z" fill="#AF9CDA"/>
<path d="M307.904 213.709C307.784 213.709 307.665 213.684 307.555 213.636C307.444 213.589 307.344 213.52 307.261 213.434C307.175 213.348 307.107 213.247 307.06 213.135C307.013 213.023 306.989 212.902 306.989 212.781C306.989 212.66 307.013 212.54 307.06 212.428C307.107 212.316 307.175 212.214 307.261 212.129C316.512 203.383 323.917 192.871 329.036 181.214C334.156 169.557 336.888 156.991 337.069 144.26C337.251 131.529 334.879 118.89 330.093 107.092C325.308 95.2935 318.206 84.5745 309.208 75.5688C300.21 66.563 289.499 59.4533 277.707 54.6599C265.914 49.8665 253.281 47.4868 240.554 47.6615C227.827 47.8361 215.263 50.5615 203.607 55.6767C191.951 60.7918 181.438 68.1927 172.691 77.442C172.518 77.615 172.283 77.7122 172.039 77.7122C171.794 77.7122 171.559 77.615 171.386 77.442C171.213 77.2689 171.116 77.0343 171.116 76.7896C171.116 76.5449 171.213 76.3102 171.386 76.1372C180.37 66.9913 191.075 59.716 202.884 54.7311C214.693 49.7463 227.372 47.1507 240.19 47.0942C253.007 47.0377 265.709 49.5214 277.562 54.4019C289.414 59.2824 300.183 66.4631 309.247 75.5294C318.31 84.5957 325.488 95.368 330.367 107.224C335.246 119.081 337.729 131.787 337.673 144.608C337.616 157.43 335.021 170.113 330.038 181.926C325.055 193.739 317.782 204.448 308.639 213.434C308.547 213.534 308.432 213.612 308.305 213.66C308.177 213.708 308.04 213.725 307.904 213.709Z" fill="#243762"/>
<path d="M241.161 217.623C281.563 217.623 314.316 184.86 314.316 144.445C314.316 104.03 281.563 71.2671 241.161 71.2671C200.758 71.2671 168.006 104.03 168.006 144.445C168.006 184.86 200.758 217.623 241.161 217.623Z" fill="white"/>
<path d="M241.161 218.542C221.516 218.542 202.675 210.736 188.783 196.84C174.892 182.944 167.088 164.097 167.088 144.445C167.088 124.793 174.892 105.947 188.783 92.0507C202.675 78.1548 221.516 70.3481 241.161 70.3481C241.405 70.3481 241.639 70.445 241.811 70.6173C241.983 70.7896 242.08 71.0233 242.08 71.267C242.08 71.5107 241.983 71.7444 241.811 71.9167C241.639 72.0891 241.405 72.1859 241.161 72.1859C222.003 72.1859 203.629 79.7989 190.083 93.3501C176.536 106.901 168.925 125.281 168.925 144.445C168.925 163.61 176.536 181.989 190.083 195.54C203.629 209.091 222.003 216.704 241.161 216.704C241.403 216.709 241.634 216.808 241.806 216.979C241.977 217.15 242.075 217.381 242.08 217.623C242.08 217.867 241.983 218.101 241.811 218.273C241.639 218.445 241.405 218.542 241.161 218.542Z" fill="#243762"/>
<path d="M260.102 158.43H240.206C238.257 158.43 236.388 157.656 235.01 156.277C233.632 154.899 232.857 153.029 232.857 151.079V123.513C232.857 121.807 233.535 120.171 234.741 118.965C235.947 117.759 237.582 117.081 239.287 117.081C240.993 117.081 242.628 117.759 243.834 118.965C245.04 120.171 245.717 121.807 245.717 123.513V145.566H260.157C261.863 145.566 263.498 146.244 264.704 147.45C265.91 148.656 266.587 150.292 266.587 151.998C266.587 153.704 265.91 155.34 264.704 156.546C263.498 157.752 261.863 158.43 260.157 158.43H260.102Z" fill="#243762"/>
<path d="M91.8569 177.855L195.416 281.448C200.232 286.267 205.951 290.09 212.244 292.698C218.537 295.306 225.283 296.649 232.095 296.649C238.907 296.649 245.652 295.306 251.946 292.698C258.239 290.09 263.957 286.267 268.773 281.448L281.156 269.061C282.269 267.951 283.153 266.633 283.756 265.18C284.359 263.728 284.669 262.171 284.669 260.599C284.669 259.026 284.359 257.469 283.756 256.017C283.153 254.564 282.269 253.246 281.156 252.136L238.901 209.868C236.656 207.627 233.613 206.369 230.441 206.369C227.269 206.369 224.227 207.627 221.981 209.868L200.836 231.002C200.445 231.396 199.98 231.709 199.467 231.922C198.955 232.135 198.406 232.245 197.851 232.245C197.296 232.245 196.746 232.135 196.234 231.922C195.721 231.709 195.256 231.396 194.865 231.002L143.646 179.73C142.863 178.944 142.423 177.88 142.423 176.771C142.423 175.661 142.863 174.597 143.646 173.812L164.479 152.972C165.593 151.862 166.476 150.544 167.079 149.091C167.682 147.639 167.993 146.082 167.993 144.51C167.993 142.937 167.682 141.38 167.079 139.928C166.476 138.475 165.593 137.157 164.479 136.047L121.086 92.6214C118.863 90.404 115.859 89.1466 112.72 89.1191C109.581 89.0916 106.556 90.2962 104.294 92.4744L92.5366 103.832C87.5817 108.618 83.6287 114.343 80.9082 120.673C78.1876 127.003 76.7539 133.811 76.6907 140.701C76.6274 147.591 77.9358 154.424 80.5397 160.803C83.1435 167.182 86.9906 172.979 91.8569 177.855Z" fill="#243762"/>
<path d="M95.1458 105.927L153.328 164.127L155.331 162.142L164.516 152.954C165.63 151.844 166.514 150.525 167.117 149.073C167.72 147.621 168.03 146.064 168.03 144.491C168.03 142.919 167.72 141.362 167.117 139.909C166.514 138.457 165.63 137.138 164.516 136.028L121.086 92.6214C118.863 90.404 115.86 89.1466 112.721 89.1191C109.581 89.0916 106.556 90.2962 104.295 92.4744L92.5371 103.832L95.1458 105.927Z" fill="#ECF1F7"/>
<path d="M153.327 165.395L94.5387 106.588L91.1768 103.886L103.669 91.8861C106.097 89.5344 109.353 88.2333 112.733 88.2642C116.112 88.2952 119.344 89.6557 121.728 92.0515L165.14 135.385C166.34 136.58 167.292 138.001 167.941 139.565C168.591 141.129 168.925 142.806 168.925 144.5C168.925 146.194 168.591 147.871 167.941 149.435C167.292 151 166.34 152.42 165.14 153.615L153.327 165.395ZM93.9325 103.776L95.7696 105.265L153.327 162.841L163.836 152.329C164.866 151.304 165.684 150.086 166.242 148.744C166.8 147.402 167.087 145.963 167.087 144.509C167.087 143.056 166.8 141.617 166.242 140.275C165.684 138.933 164.866 137.715 163.836 136.69L120.424 93.2644C118.378 91.2102 115.606 90.0449 112.707 90.0209C109.808 89.9968 107.017 91.1159 104.937 93.1358L93.9325 103.776Z" fill="#243762"/>
<path d="M213.512 222.365L271.713 280.565L273.697 278.581L282.883 269.392C285.123 267.146 286.381 264.102 286.381 260.929C286.381 257.756 285.123 254.713 282.883 252.467L239.471 209.041C237.254 206.821 234.252 205.561 231.115 205.533C227.977 205.506 224.954 206.713 222.698 208.894L210.94 220.251L213.512 222.365Z" fill="#ECF1F7"/>
<path d="M271.713 281.852L212.924 223.044L209.544 220.343L222.055 208.251C224.497 205.92 227.752 204.633 231.127 204.664C234.503 204.695 237.733 206.041 240.132 208.416L283.507 251.768C284.71 252.964 285.664 254.385 286.315 255.951C286.967 257.517 287.302 259.196 287.302 260.892C287.302 262.588 286.967 264.268 286.315 265.834C285.664 267.399 284.71 268.821 283.507 270.017L271.713 281.852ZM212.3 220.196L214.137 221.684L271.713 279.334L282.221 268.822C283.252 267.797 284.069 266.579 284.627 265.237C285.185 263.895 285.472 262.456 285.472 261.003C285.472 259.549 285.185 258.11 284.627 256.768C284.069 255.426 283.252 254.208 282.221 253.183L238.828 209.684C236.77 207.652 234.002 206.501 231.11 206.477C228.219 206.453 225.432 207.558 223.341 209.556L212.3 220.196Z" fill="#243762"/>
<path d="M135.048 135.44C134.809 135.438 134.579 135.346 134.405 135.183L98.9479 99.7147C98.7749 99.5416 98.6777 99.307 98.6777 99.0623C98.6777 98.8176 98.7749 98.5829 98.9479 98.4099C99.1208 98.2369 99.3554 98.1396 99.6001 98.1396C99.8447 98.1396 100.079 98.2369 100.252 98.4099L135.709 133.878C135.878 134.053 135.973 134.287 135.973 134.53C135.973 134.774 135.878 135.008 135.709 135.183C135.528 135.347 135.292 135.439 135.048 135.44Z" fill="#243762"/>
<path d="M276.085 276.522C275.966 276.524 275.848 276.502 275.738 276.458C275.628 276.414 275.527 276.348 275.442 276.265L239.986 240.742C239.899 240.656 239.831 240.555 239.785 240.443C239.738 240.331 239.714 240.211 239.714 240.089C239.714 239.968 239.738 239.848 239.785 239.736C239.831 239.624 239.899 239.522 239.986 239.437C240.16 239.267 240.394 239.173 240.638 239.173C240.881 239.173 241.115 239.267 241.29 239.437L276.747 274.905C276.916 275.08 277.011 275.314 277.011 275.557C277.011 275.801 276.916 276.035 276.747 276.21C276.664 276.304 276.562 276.381 276.448 276.435C276.335 276.488 276.211 276.518 276.085 276.522Z" fill="#243762"/>
<path d="M431.728 457.851L295.963 437.765C288.592 436.671 281.957 432.693 277.517 426.708C273.076 420.722 271.193 413.217 272.282 405.843L320.966 76.5599C322.056 69.1834 326.03 62.5418 332.014 58.096C337.999 53.6502 345.503 51.7644 352.878 52.8533L488.679 72.9396C496.05 74.0337 502.685 78.0108 507.125 83.9965C511.566 89.9823 513.448 97.487 512.36 104.861L463.675 434.144C463.134 437.799 461.878 441.312 459.979 444.481C458.081 447.651 455.577 450.415 452.61 452.617C449.643 454.818 446.272 456.413 442.689 457.311C439.106 458.21 435.381 458.393 431.728 457.851Z" fill="#243762"/>
<path d="M331.509 83.5917L285.549 394.554L454.111 419.483L500.071 108.521L331.509 83.5917Z" fill="#ECF1F7"/>
<path d="M333.111 83.351L329.572 106.711L498.263 132.279L501.801 108.918L333.111 83.351Z" fill="#AF9CDA"/>
<path d="M366.986 437.378C366.445 437.38 365.904 437.337 365.37 437.25C362.574 436.817 360.055 435.316 358.343 433.064C356.63 430.812 355.857 427.984 356.185 425.173C356.514 422.362 357.92 419.789 360.106 417.993C362.292 416.197 365.089 415.32 367.909 415.544C370.729 415.768 373.352 417.078 375.227 419.196C377.102 421.315 378.083 424.079 377.964 426.906C377.844 429.733 376.634 432.404 374.586 434.357C372.539 436.31 369.815 437.393 366.986 437.378ZM366.986 417.163C365.225 417.161 363.501 417.664 362.018 418.614C360.535 419.564 359.356 420.92 358.622 422.521C357.888 424.123 357.63 425.901 357.877 427.645C358.125 429.389 358.869 431.025 360.02 432.358C361.171 433.691 362.681 434.665 364.369 435.164C366.058 435.663 367.855 435.666 369.545 435.173C371.235 434.679 372.748 433.71 373.904 432.381C375.059 431.052 375.808 429.418 376.062 427.675C376.409 425.274 375.793 422.832 374.347 420.883C372.902 418.934 370.744 417.637 368.346 417.274C367.89 417.2 367.429 417.163 366.968 417.163H366.986Z" fill="#ECF1F7"/>
<path d="M391.311 80.639C391.14 80.6571 390.967 80.6571 390.796 80.639C390.335 80.5761 389.891 80.422 389.49 80.1858C389.089 79.9496 388.739 79.6359 388.46 79.2631C388.182 78.8903 387.98 78.4657 387.867 78.0142C387.754 77.5626 387.732 77.093 387.802 76.6328C387.952 75.7049 388.451 74.8696 389.198 74.2989C389.572 74.0232 389.996 73.8243 390.447 73.7139C390.898 73.6035 391.366 73.5837 391.825 73.6557C392.283 73.7231 392.724 73.8803 393.122 74.1182C393.52 74.356 393.867 74.6699 394.143 75.042C394.419 75.414 394.62 75.8369 394.733 76.2864C394.846 76.736 394.869 77.2034 394.801 77.6619C394.67 78.493 394.246 79.2497 393.606 79.7956C392.966 80.3415 392.152 80.6406 391.311 80.639ZM391.311 75.3464C390.909 75.3698 390.526 75.5245 390.22 75.7868C389.915 76.0491 389.704 76.4044 389.62 76.7982C389.566 77.2449 389.677 77.6961 389.933 78.0662C390.21 78.423 390.609 78.6651 391.053 78.7462C391.503 78.8067 391.958 78.6879 392.321 78.4154C392.502 78.2882 392.655 78.1244 392.769 77.9344C392.883 77.7444 392.956 77.5326 392.982 77.3128C393.02 77.0913 393.012 76.8644 392.958 76.6462C392.905 76.428 392.806 76.2233 392.67 76.0447C392.537 75.8632 392.37 75.7097 392.178 75.593C391.985 75.4763 391.772 75.3987 391.549 75.3648L391.311 75.3464Z" fill="#ECF1F7"/>
<path d="M446.095 88.7253C445.918 88.743 445.739 88.743 445.562 88.7253L402.573 82.3668C402.111 82.299 401.668 82.1407 401.267 81.9011C400.867 81.6614 400.518 81.3451 400.24 80.9701C399.693 80.2104 399.456 79.2705 399.578 78.3422C399.646 77.8812 399.803 77.438 400.042 77.038C400.281 76.6379 400.596 76.2888 400.97 76.0107C401.343 75.7325 401.768 75.5307 402.22 75.4168C402.671 75.3028 403.141 75.279 403.602 75.3467L446.609 81.7052C447.068 81.7743 447.508 81.9333 447.906 82.1729C448.303 82.4126 448.649 82.7283 448.924 83.1019C449.205 83.4727 449.409 83.8967 449.523 84.3483C449.637 84.7999 449.658 85.2698 449.585 85.7298C449.531 86.1821 449.386 86.6187 449.158 87.0135C448.931 87.4082 448.626 87.753 448.263 88.027C447.64 88.4983 446.875 88.7444 446.095 88.7253ZM403.087 77.1844C402.679 77.1842 402.283 77.3305 401.973 77.5969C401.663 77.8632 401.459 78.232 401.397 78.6362C401.348 79.0852 401.466 79.5366 401.728 79.9043C401.858 80.0826 402.023 80.233 402.212 80.3466C402.401 80.4602 402.612 80.5348 402.83 80.5658L445.837 86.9244C446.27 86.9715 446.704 86.8482 447.047 86.5805C447.39 86.3129 447.615 85.922 447.675 85.4909C447.712 85.2724 447.704 85.0484 447.65 84.8333C447.596 84.6181 447.498 84.4165 447.362 84.2413C447.229 84.0597 447.062 83.9062 446.87 83.7895C446.677 83.6729 446.464 83.5953 446.242 83.5613L403.326 77.1844H403.087Z" fill="#ECF1F7"/>
<path d="M454.802 324.358L337.225 306.955C336.307 306.823 335.374 307.061 334.63 307.615C333.887 308.17 333.393 308.996 333.257 309.914L328.737 340.42C328.67 340.876 328.692 341.341 328.804 341.788C328.916 342.236 329.115 342.657 329.39 343.027C329.665 343.397 330.01 343.71 330.405 343.947C330.801 344.184 331.239 344.34 331.695 344.408L432.223 359.275L442.566 373.572L444.403 361.094L449.254 361.811C450.174 361.943 451.109 361.706 451.855 361.152C452.602 360.598 453.099 359.771 453.24 358.852L457.741 328.328C457.811 327.874 457.791 327.41 457.681 326.964C457.571 326.518 457.373 326.098 457.1 325.729C456.827 325.36 456.483 325.049 456.088 324.813C455.694 324.578 455.256 324.423 454.802 324.358Z" fill="#C5D9FF"/>
<path d="M432.223 360.194H432.076L331.548 345.308C330.391 345.137 329.348 344.516 328.645 343.581C328.298 343.114 328.048 342.582 327.91 342.017C327.771 341.453 327.746 340.866 327.837 340.291L332.338 309.785C332.519 308.63 333.15 307.594 334.094 306.905C335.038 306.216 336.217 305.93 337.371 306.11L364.543 310.134C364.663 310.152 364.779 310.194 364.884 310.257C364.988 310.32 365.079 310.403 365.152 310.501C365.224 310.599 365.277 310.71 365.306 310.829C365.336 310.947 365.342 311.07 365.324 311.191C365.305 311.312 365.264 311.427 365.201 311.532C365.138 311.637 365.055 311.728 364.957 311.8C364.859 311.873 364.748 311.925 364.629 311.955C364.511 311.984 364.388 311.99 364.267 311.972L337.096 307.966C336.419 307.865 335.73 308.037 335.179 308.444C334.628 308.85 334.261 309.458 334.156 310.134L329.637 340.659C329.56 341.312 329.737 341.971 330.133 342.496C330.332 342.77 330.585 343 330.875 343.174C331.166 343.348 331.488 343.461 331.823 343.507L432.352 358.393C432.595 358.41 432.822 358.523 432.982 358.707C433.142 358.892 433.223 359.132 433.206 359.376C433.189 359.62 433.076 359.847 432.891 360.007C432.707 360.167 432.467 360.248 432.223 360.231V360.194Z" fill="#243762"/>
<path d="M473.504 197.923L355.927 180.52C355.007 180.388 354.072 180.625 353.325 181.179C352.579 181.733 352.081 182.559 351.94 183.478L347.439 213.984C347.369 214.44 347.389 214.904 347.499 215.351C347.609 215.799 347.806 216.22 348.08 216.59C348.353 216.961 348.697 217.274 349.091 217.511C349.486 217.748 349.923 217.905 350.379 217.972L450.907 232.84L461.269 247.137L463.106 234.64L467.956 235.376C468.874 235.507 469.807 235.27 470.55 234.715C471.294 234.161 471.788 233.334 471.924 232.417L476.443 201.892C476.575 200.977 476.34 200.046 475.79 199.303C475.239 198.559 474.418 198.063 473.504 197.923Z" fill="#C5D9FF"/>
<path d="M461.857 249.489L450.393 233.703L350.251 218.873C349.102 218.687 348.073 218.057 347.385 217.118C346.698 216.179 346.407 215.007 346.576 213.856C346.617 213.617 346.749 213.402 346.944 213.258C347.14 213.115 347.383 213.052 347.624 213.084C347.743 213.102 347.858 213.143 347.961 213.206C348.065 213.268 348.155 213.35 348.227 213.448C348.298 213.545 348.35 213.655 348.379 213.773C348.408 213.89 348.414 214.012 348.395 214.131C348.346 214.467 348.363 214.809 348.447 215.138C348.53 215.467 348.678 215.776 348.881 216.047C349.084 216.319 349.339 216.548 349.631 216.72C349.923 216.893 350.246 217.006 350.581 217.053L451.477 231.994L460.755 244.858L462.39 233.703L468.158 234.549C468.809 234.633 469.468 234.462 469.995 234.071C470.272 233.869 470.505 233.614 470.682 233.32C470.859 233.027 470.975 232.701 471.024 232.362L474.019 212.147C474.059 211.907 474.191 211.693 474.387 211.549C474.582 211.405 474.825 211.343 475.066 211.375C475.185 211.393 475.3 211.434 475.404 211.497C475.507 211.559 475.597 211.641 475.669 211.738C475.741 211.836 475.792 211.946 475.821 212.064C475.85 212.181 475.856 212.303 475.838 212.422L472.843 232.637C472.653 233.788 472.019 234.818 471.078 235.505C470.136 236.192 468.962 236.483 467.809 236.313L463.878 235.725L461.857 249.489Z" fill="#243762"/>
<path d="M324.678 237.232L442.255 254.635C443.172 254.771 443.998 255.265 444.552 256.009C445.107 256.753 445.344 257.686 445.212 258.604L440.693 289.129C440.557 290.047 440.063 290.873 439.319 291.427C438.576 291.982 437.643 292.219 436.725 292.088L336.197 277.202L322.143 287.879L323.98 275.401L319.111 274.684C318.656 274.617 318.218 274.46 317.824 274.223C317.429 273.986 317.085 273.673 316.812 273.302C316.539 272.932 316.342 272.511 316.232 272.063C316.122 271.616 316.102 271.152 316.172 270.697L320.673 240.19C320.813 239.268 321.314 238.438 322.064 237.884C322.815 237.329 323.755 237.095 324.678 237.232Z" fill="#AF9CDA"/>
<path d="M437.24 293.043H436.578L373.84 283.763C373.719 283.746 373.603 283.706 373.498 283.644C373.393 283.582 373.301 283.5 373.228 283.403C373.155 283.306 373.101 283.195 373.071 283.077C373.04 282.959 373.033 282.836 373.05 282.715C373.067 282.595 373.107 282.479 373.169 282.374C373.231 282.269 373.313 282.177 373.41 282.103C373.507 282.03 373.618 281.976 373.736 281.946C373.854 281.915 373.977 281.908 374.097 281.925L436.854 291.206C437.504 291.281 438.159 291.111 438.691 290.728C438.967 290.529 439.2 290.278 439.377 289.987C439.554 289.697 439.67 289.374 439.72 289.037L444.221 258.513C444.273 258.177 444.258 257.834 444.177 257.504C444.096 257.175 443.951 256.864 443.749 256.591C443.548 256.317 443.294 256.087 443.003 255.912C442.712 255.737 442.389 255.622 442.053 255.572C441.932 255.557 441.816 255.517 441.711 255.455C441.607 255.393 441.516 255.311 441.443 255.213C441.371 255.115 441.32 255.004 441.292 254.886C441.264 254.767 441.26 254.644 441.281 254.525C441.318 254.287 441.446 254.073 441.638 253.929C441.83 253.784 442.072 253.721 442.31 253.753C443.462 253.938 444.495 254.571 445.183 255.514C445.871 256.457 446.159 257.634 445.984 258.788L441.483 289.294C441.399 289.87 441.201 290.423 440.902 290.921C440.602 291.42 440.207 291.854 439.738 292.198C439.01 292.727 438.139 293.022 437.24 293.043Z" fill="#243762"/>
<path d="M289.777 365.936L285.548 394.551L454.11 419.48L458.339 390.865L289.777 365.936Z" fill="white"/>
<path d="M314.665 384.084C314.367 386.09 313.481 387.963 312.119 389.465C310.757 390.968 308.981 392.032 307.014 392.524C305.047 393.017 302.979 392.914 301.07 392.231C299.161 391.547 297.498 390.313 296.291 388.683C295.083 387.054 294.386 385.103 294.287 383.078C294.188 381.052 294.691 379.043 295.734 377.303C296.776 375.564 298.311 374.173 300.144 373.306C301.977 372.439 304.025 372.135 306.031 372.433C307.363 372.631 308.643 373.089 309.797 373.782C310.952 374.474 311.959 375.388 312.761 376.47C313.563 377.552 314.144 378.781 314.47 380.087C314.797 381.394 314.863 382.752 314.665 384.084Z" fill="#C5D9FF"/>
<path opacity="0.33" d="M439.077 411.779C438.624 411.815 438.17 411.815 437.717 411.779L328.499 395.607C327.31 395.441 326.165 395.038 325.133 394.423C324.102 393.807 323.203 392.991 322.492 392.023C321.436 390.567 320.831 388.832 320.751 387.035C320.672 385.237 321.122 383.456 322.045 381.912C322.968 380.368 324.325 379.129 325.946 378.349C327.567 377.569 329.381 377.282 331.163 377.524L440.399 393.696C442.585 394.144 444.532 395.372 445.878 397.151C447.225 398.93 447.878 401.139 447.716 403.364C447.554 405.59 446.588 407.68 444.998 409.245C443.408 410.811 441.304 411.744 439.077 411.871V411.779ZM437.993 409.941C438.991 410.199 440.032 410.243 441.048 410.072C442.064 409.901 443.033 409.518 443.892 408.948C444.751 408.377 445.48 407.633 446.032 406.762C446.585 405.892 446.948 404.915 447.098 403.895C447.248 402.875 447.182 401.835 446.905 400.842C446.627 399.849 446.143 398.926 445.486 398.132C444.828 397.338 444.011 396.692 443.087 396.235C442.163 395.777 441.154 395.52 440.124 395.478L330.888 379.325C329.466 379.138 328.021 379.371 326.73 379.995C325.44 380.619 324.36 381.607 323.623 382.838C322.887 384.069 322.527 385.488 322.587 386.921C322.647 388.354 323.125 389.738 323.962 390.902C324.53 391.675 325.247 392.326 326.071 392.818C326.894 393.311 327.807 393.634 328.756 393.769L437.993 409.941Z" fill="#AF9CDA"/>
<path d="M342.02 100.376H341.506C340.821 100.244 340.187 99.9194 339.68 99.4402C339.172 98.9611 338.812 98.3473 338.64 97.6706C338.469 96.9939 338.493 96.2823 338.711 95.6191C338.929 94.9559 339.331 94.3686 339.871 93.9258C340.642 93.3582 341.605 93.1142 342.553 93.2458C343.501 93.4041 344.349 93.9275 344.916 94.7039C345.483 95.4802 345.723 96.4478 345.585 97.3991C345.424 98.2299 344.982 98.9798 344.332 99.5222C343.683 100.065 342.866 100.366 342.02 100.376ZM342.02 95.01C341.705 95.0342 341.401 95.1395 341.138 95.3158C340.875 95.4921 340.662 95.7334 340.519 96.0163C340.377 96.2992 340.31 96.614 340.325 96.9304C340.341 97.2467 340.437 97.5538 340.606 97.8218C340.829 98.0729 341.116 98.2581 341.437 98.3573C341.758 98.4565 342.099 98.4659 342.425 98.3844C342.751 98.303 343.048 98.1338 343.284 97.8953C343.521 97.6568 343.687 97.358 343.766 97.0315C343.824 96.5704 343.706 96.1042 343.435 95.7267C343.3 95.5377 343.127 95.3783 342.928 95.2582C342.729 95.1381 342.508 95.0599 342.278 95.0284L342.02 95.01Z" fill="white"/>
<path d="M351.977 101.846H351.445C350.599 101.733 349.82 101.328 349.24 100.703C348.66 100.077 348.316 99.2691 348.266 98.4173C348.216 97.5655 348.465 96.7229 348.968 96.0342C349.472 95.3455 350.199 94.8534 351.026 94.6424C351.852 94.4315 352.726 94.5147 353.498 94.8779C354.27 95.2411 354.891 95.8616 355.256 96.6331C355.62 97.4045 355.705 98.2787 355.496 99.1059C355.287 99.933 354.796 100.662 354.108 101.167C353.491 101.62 352.743 101.858 351.977 101.846ZM351.977 96.4803C351.561 96.4986 351.164 96.6576 350.85 96.9314C350.536 97.2052 350.325 97.5775 350.25 97.9872C350.213 98.2146 350.221 98.4471 350.275 98.6712C350.328 98.8953 350.426 99.1064 350.563 99.292C350.846 99.6635 351.26 99.9132 351.72 99.9904C351.949 100.025 352.182 100.014 352.406 99.9573C352.63 99.9005 352.84 99.7992 353.025 99.6596C353.396 99.3764 353.645 98.9624 353.723 98.5018C353.781 98.0407 353.663 97.5745 353.392 97.197C353.257 97.008 353.084 96.8486 352.885 96.7285C352.686 96.6084 352.465 96.5302 352.235 96.4987L351.977 96.4803Z" fill="white"/>
<path d="M361.715 103.28C361.544 103.298 361.371 103.298 361.2 103.28C360.25 103.213 359.364 102.78 358.727 102.072C358.089 101.364 357.752 100.437 357.785 99.4847C357.819 98.5328 358.22 97.631 358.905 96.9694C359.59 96.3078 360.505 95.938 361.457 95.938C362.41 95.938 363.325 96.3078 364.01 96.9694C364.695 97.631 365.096 98.5328 365.13 99.4847C365.163 100.437 364.825 101.364 364.188 102.072C363.551 102.78 362.665 103.213 361.715 103.28ZM361.715 97.9321C361.337 97.9294 360.968 98.0522 360.668 98.2813C360.481 98.4176 360.325 98.5906 360.208 98.7897C360.091 98.9889 360.016 99.2098 359.988 99.439C359.924 99.8978 360.035 100.364 360.3 100.744C360.466 101.016 360.7 101.24 360.978 101.395C361.257 101.549 361.571 101.629 361.89 101.625C362.208 101.622 362.52 101.535 362.795 101.374C363.071 101.214 363.299 100.984 363.459 100.708C363.618 100.433 363.704 100.12 363.706 99.8012C363.708 99.4825 363.628 99.1686 363.472 98.8905C363.317 98.6123 363.092 98.3794 362.819 98.2146C362.546 98.0498 362.235 97.9588 361.917 97.9505L361.715 97.9321Z" fill="white"/>
<path d="M498.931 133.124H498.802L342.774 110.043C342.535 110.002 342.321 109.87 342.177 109.675C342.033 109.479 341.97 109.236 342.002 108.995C342.039 108.757 342.167 108.543 342.359 108.399C342.552 108.255 342.793 108.192 343.031 108.223L499.059 131.305C499.303 131.322 499.53 131.435 499.69 131.62C499.85 131.804 499.931 132.045 499.914 132.288C499.896 132.532 499.783 132.759 499.599 132.919C499.415 133.079 499.174 133.16 498.931 133.143V133.124Z" fill="#243762"/>
<path d="M433.876 331.378H433.748L350.507 319.066C350.264 319.029 350.046 318.899 349.898 318.703C349.75 318.507 349.685 318.262 349.717 318.018C349.735 317.899 349.776 317.784 349.838 317.68C349.901 317.577 349.983 317.487 350.08 317.415C350.178 317.343 350.288 317.291 350.405 317.263C350.523 317.234 350.644 317.228 350.764 317.246L434.023 329.559C434.143 329.577 434.257 329.618 434.361 329.681C434.464 329.743 434.554 329.825 434.626 329.923C434.698 330.02 434.75 330.131 434.779 330.248C434.807 330.365 434.813 330.487 434.795 330.607C434.756 330.822 434.643 331.018 434.475 331.159C434.307 331.3 434.095 331.378 433.876 331.378Z" fill="white"/>
<path d="M384.605 334.245H384.458L349.057 328.953C348.813 328.919 348.593 328.789 348.445 328.593C348.297 328.396 348.233 328.149 348.267 327.905C348.301 327.661 348.43 327.441 348.627 327.293C348.823 327.145 349.07 327.081 349.314 327.115L384.752 332.371C384.99 332.407 385.204 332.535 385.348 332.728C385.492 332.92 385.556 333.162 385.524 333.4C385.505 333.631 385.401 333.846 385.23 334.003C385.06 334.159 384.837 334.246 384.605 334.245Z" fill="white"/>
<path d="M372.664 341.982H372.517L347.66 338.306C347.54 338.288 347.424 338.247 347.319 338.184C347.215 338.121 347.124 338.038 347.051 337.94C346.979 337.842 346.926 337.73 346.897 337.612C346.867 337.494 346.861 337.37 346.879 337.25C346.898 337.129 346.939 337.013 347.002 336.909C347.065 336.804 347.148 336.713 347.246 336.64C347.344 336.568 347.455 336.515 347.574 336.486C347.692 336.457 347.815 336.451 347.936 336.469L372.792 340.144C373.031 340.185 373.245 340.317 373.389 340.512C373.533 340.708 373.596 340.951 373.564 341.192C373.533 341.409 373.425 341.609 373.26 341.754C373.095 341.899 372.883 341.98 372.664 341.982Z" fill="white"/>
<path d="M432.407 341.321H432.279L395.665 335.918C395.425 335.877 395.211 335.745 395.067 335.55C394.924 335.354 394.861 335.111 394.893 334.87C394.909 334.75 394.948 334.633 395.01 334.529C395.072 334.424 395.154 334.333 395.252 334.26C395.35 334.188 395.461 334.137 395.579 334.109C395.698 334.081 395.82 334.077 395.94 334.098L432.554 339.501C432.798 339.521 433.024 339.636 433.182 339.822C433.341 340.008 433.419 340.25 433.399 340.494C433.38 340.737 433.264 340.963 433.078 341.122C432.892 341.28 432.651 341.358 432.407 341.339V341.321Z" fill="white"/>
<path d="M423.718 262.28H423.589L340.33 249.931C340.087 249.894 339.867 249.762 339.721 249.564C339.575 249.366 339.513 249.118 339.549 248.874C339.586 248.63 339.718 248.411 339.916 248.264C340.114 248.118 340.362 248.056 340.606 248.093L423.846 260.424C424.087 260.456 424.306 260.582 424.454 260.775C424.602 260.968 424.668 261.212 424.636 261.453C424.61 261.679 424.502 261.887 424.333 262.04C424.164 262.192 423.945 262.277 423.718 262.28Z" fill="white"/>
<path d="M374.426 265.147H374.298L338.859 259.909C338.739 259.891 338.623 259.849 338.518 259.787C338.414 259.724 338.323 259.641 338.25 259.543C338.178 259.445 338.125 259.333 338.096 259.215C338.066 259.096 338.061 258.973 338.079 258.853C338.097 258.732 338.138 258.616 338.201 258.511C338.264 258.407 338.347 258.316 338.445 258.243C338.543 258.171 338.655 258.118 338.773 258.089C338.891 258.059 339.014 258.053 339.135 258.072L374.573 263.309C374.817 263.329 375.043 263.444 375.201 263.63C375.36 263.816 375.438 264.058 375.418 264.301C375.399 264.545 375.284 264.771 375.097 264.93C374.911 265.088 374.67 265.166 374.426 265.147Z" fill="white"/>
<path d="M411.243 280.087H411.114L339.264 268.932C339.02 268.896 338.801 268.764 338.655 268.566C338.508 268.368 338.446 268.119 338.483 267.876C338.519 267.632 338.651 267.413 338.849 267.266C339.048 267.12 339.296 267.058 339.539 267.095L411.39 278.25C411.51 278.259 411.628 278.293 411.736 278.348C411.843 278.403 411.939 278.479 412.018 278.571C412.096 278.663 412.156 278.77 412.193 278.885C412.23 279 412.245 279.121 412.235 279.242C412.225 279.363 412.192 279.48 412.137 279.588C412.082 279.696 412.006 279.792 411.914 279.87C411.822 279.949 411.715 280.008 411.6 280.046C411.485 280.083 411.363 280.097 411.243 280.087Z" fill="white"/>
<path d="M422.248 272.222H422.119L385.505 266.709C385.384 266.693 385.267 266.653 385.162 266.592C385.056 266.53 384.964 266.449 384.89 266.351C384.817 266.254 384.763 266.142 384.733 266.024C384.703 265.905 384.697 265.782 384.715 265.661C384.756 265.422 384.888 265.208 385.083 265.064C385.278 264.92 385.522 264.858 385.762 264.89L422.377 270.311C422.62 270.328 422.847 270.441 423.007 270.625C423.167 270.81 423.248 271.05 423.231 271.294C423.214 271.538 423.101 271.765 422.916 271.925C422.732 272.085 422.492 272.166 422.248 272.149V272.222Z" fill="white"/>
<path d="M339.871 122.521L457.448 139.924C458.365 140.061 459.192 140.555 459.746 141.299C460.3 142.042 460.537 142.975 460.406 143.894L455.795 174.418C455.658 175.336 455.164 176.162 454.421 176.717C453.677 177.271 452.745 177.509 451.826 177.377L351.298 162.491L337.244 173.169L339.081 160.691L334.213 159.974C333.757 159.907 333.32 159.75 332.925 159.513C332.531 159.275 332.187 158.962 331.914 158.592C331.64 158.221 331.443 157.8 331.333 157.353C331.223 156.906 331.203 156.441 331.273 155.986L335.774 125.48C335.843 125.014 336.005 124.566 336.25 124.164C336.494 123.761 336.817 123.412 337.199 123.136C337.581 122.86 338.014 122.664 338.473 122.558C338.932 122.452 339.407 122.44 339.871 122.521Z" fill="#AF9CDA"/>
<path d="M455.795 175.337H455.611C455.373 175.301 455.159 175.173 455.015 174.98C454.871 174.788 454.808 174.547 454.839 174.308L459.34 143.784C459.386 143.461 459.368 143.132 459.286 142.817C459.204 142.501 459.06 142.205 458.863 141.946C458.664 141.67 458.412 141.436 458.122 141.259C457.832 141.083 457.509 140.966 457.172 140.917L384.165 130.129C383.925 130.089 383.711 129.957 383.567 129.761C383.424 129.566 383.361 129.322 383.393 129.082C383.411 128.962 383.452 128.847 383.515 128.744C383.577 128.64 383.659 128.55 383.756 128.478C383.854 128.407 383.964 128.355 384.081 128.326C384.199 128.297 384.321 128.292 384.44 128.31L457.448 139.005C458.03 139.101 458.588 139.313 459.086 139.629C459.585 139.944 460.015 140.357 460.351 140.843C460.703 141.307 460.958 141.838 461.1 142.403C461.242 142.969 461.269 143.557 461.177 144.133L456.713 174.584C456.671 174.796 456.556 174.987 456.388 175.125C456.221 175.262 456.011 175.337 455.795 175.337Z" fill="#243762"/>
<path d="M438.818 147.569H438.69L355.431 135.238C355.311 135.22 355.196 135.179 355.093 135.116C354.989 135.054 354.899 134.972 354.828 134.875C354.756 134.777 354.704 134.667 354.675 134.549C354.646 134.432 354.641 134.31 354.659 134.191C354.7 133.951 354.832 133.737 355.027 133.593C355.222 133.449 355.466 133.387 355.706 133.419L438.947 145.75C439.067 145.763 439.182 145.801 439.287 145.861C439.392 145.92 439.483 146.001 439.555 146.097C439.628 146.194 439.679 146.304 439.708 146.421C439.736 146.539 439.739 146.66 439.719 146.779C439.688 146.997 439.58 147.196 439.415 147.341C439.25 147.486 439.038 147.567 438.818 147.569Z" fill="white"/>
<path d="M389.473 150.436L353.961 145.18C353.84 145.162 353.724 145.12 353.62 145.057C353.515 144.994 353.424 144.912 353.352 144.813C353.279 144.715 353.227 144.604 353.197 144.485C353.168 144.367 353.162 144.244 353.18 144.123C353.198 144.003 353.24 143.887 353.303 143.782C353.366 143.678 353.449 143.587 353.547 143.514C353.645 143.441 353.756 143.389 353.875 143.36C353.993 143.33 354.116 143.324 354.237 143.342L389.675 148.58C389.919 148.599 390.144 148.715 390.303 148.901C390.461 149.087 390.54 149.328 390.52 149.572C390.501 149.816 390.385 150.042 390.199 150.2C390.013 150.359 389.772 150.437 389.528 150.418L389.473 150.436Z" fill="white"/>
<path d="M426.345 165.395H426.216L354.366 154.24C354.127 154.199 353.912 154.067 353.769 153.872C353.625 153.677 353.562 153.433 353.594 153.193C353.612 153.073 353.653 152.958 353.716 152.855C353.778 152.751 353.86 152.661 353.958 152.589C354.055 152.518 354.165 152.466 354.283 152.437C354.4 152.408 354.522 152.402 354.641 152.421L426.492 163.557C426.731 163.598 426.945 163.73 427.089 163.925C427.233 164.121 427.295 164.364 427.263 164.605C427.232 164.826 427.122 165.028 426.953 165.173C426.784 165.318 426.568 165.397 426.345 165.395Z" fill="white"/>
<path d="M437.349 157.511H437.239L400.625 151.998C400.504 151.981 400.388 151.941 400.283 151.879C400.178 151.817 400.087 151.735 400.013 151.638C399.94 151.541 399.886 151.43 399.856 151.312C399.825 151.194 399.818 151.071 399.835 150.951C399.852 150.83 399.893 150.714 399.954 150.609C400.016 150.504 400.098 150.412 400.195 150.338C400.292 150.265 400.403 150.212 400.521 150.181C400.639 150.15 400.762 150.143 400.882 150.16L437.496 155.582C437.74 155.599 437.967 155.712 438.127 155.896C438.287 156.081 438.368 156.321 438.351 156.565C438.334 156.808 438.221 157.035 438.036 157.196C437.852 157.356 437.611 157.436 437.368 157.419L437.349 157.511Z" fill="white"/>
<path d="M452.653 206.119H452.525L369.266 193.788C369.145 193.77 369.029 193.728 368.925 193.665C368.82 193.602 368.729 193.519 368.657 193.421C368.51 193.223 368.448 192.975 368.485 192.731C368.521 192.488 368.653 192.268 368.851 192.122C369.049 191.975 369.298 191.914 369.541 191.95L452.782 204.263C453.026 204.28 453.252 204.393 453.413 204.578C453.573 204.762 453.653 205.002 453.636 205.246C453.619 205.49 453.506 205.717 453.322 205.877C453.137 206.037 452.897 206.118 452.653 206.101V206.119Z" fill="white"/>
<path d="M403.362 208.968H403.234L367.795 203.73C367.556 203.689 367.342 203.557 367.198 203.362C367.054 203.167 366.992 202.923 367.024 202.683C367.042 202.563 367.083 202.448 367.145 202.345C367.208 202.241 367.29 202.151 367.387 202.079C367.485 202.008 367.595 201.956 367.712 201.927C367.83 201.898 367.952 201.892 368.071 201.911L403.509 207.148C403.753 207.168 403.979 207.283 404.137 207.469C404.296 207.655 404.374 207.897 404.354 208.141C404.335 208.384 404.219 208.61 404.033 208.769C403.847 208.927 403.606 209.005 403.362 208.986V208.968Z" fill="white"/>
<path d="M391.421 216.704H391.31L366.436 213.029C366.315 213.011 366.199 212.969 366.095 212.906C365.99 212.843 365.899 212.76 365.826 212.662C365.754 212.564 365.701 212.453 365.672 212.334C365.643 212.216 365.637 212.093 365.655 211.972C365.673 211.852 365.715 211.736 365.777 211.631C365.84 211.527 365.923 211.435 366.021 211.363C366.119 211.29 366.231 211.238 366.349 211.208C366.468 211.179 366.591 211.173 366.711 211.191L391.586 214.867C391.83 214.886 392.056 215.002 392.214 215.188C392.372 215.374 392.451 215.615 392.431 215.859C392.412 216.103 392.296 216.329 392.11 216.487C391.924 216.646 391.683 216.724 391.439 216.704H391.421Z" fill="white"/>
<path d="M451.182 216.043H451.054L414.44 210.53C414.196 210.495 413.976 210.366 413.828 210.169C413.68 209.973 413.615 209.726 413.65 209.482C413.684 209.238 413.813 209.018 414.01 208.87C414.206 208.722 414.453 208.658 414.697 208.692L451.311 214.113C451.555 214.13 451.781 214.243 451.942 214.428C452.102 214.612 452.182 214.853 452.165 215.096C452.148 215.34 452.035 215.567 451.851 215.727C451.666 215.887 451.426 215.968 451.182 215.951V216.043Z" fill="white"/>
<path d="M283.379 429.605L94.7779 450.849C93.9132 450.956 93.0358 450.891 92.1967 450.656C91.3575 450.422 90.5733 450.023 89.8896 449.482C89.2059 448.942 88.6363 448.271 88.214 447.509C87.7916 446.747 87.5249 445.908 87.4293 445.042L73.8713 324.174C73.8662 324.128 73.8702 324.082 73.8832 324.038C73.8962 323.993 73.9179 323.952 73.9469 323.916C73.9759 323.88 74.0118 323.851 74.0524 323.829C74.0931 323.807 74.1376 323.793 74.1836 323.788L275.148 301.148C275.193 301.14 275.239 301.141 275.283 301.152C275.327 301.163 275.369 301.183 275.405 301.21C275.441 301.238 275.472 301.273 275.494 301.313C275.516 301.352 275.53 301.396 275.534 301.442L289.147 422.346C289.247 423.201 289.177 424.069 288.94 424.897C288.704 425.726 288.307 426.5 287.771 427.174C287.235 427.849 286.571 428.41 285.817 428.828C285.063 429.245 284.235 429.509 283.379 429.605Z" fill="#F7A9B4"/>
<path d="M94.043 451.823C92.1941 451.817 90.4116 451.133 89.0335 449.9C87.6553 448.667 86.7773 446.971 86.5659 445.134L72.9527 324.285C72.9166 323.951 73.0143 323.617 73.2244 323.355C73.4344 323.093 73.7397 322.925 74.0733 322.888L275.056 300.229C275.39 300.193 275.724 300.291 275.986 300.501C276.248 300.711 276.416 301.016 276.452 301.35L290.066 422.254C290.178 423.23 290.096 424.218 289.825 425.162C289.554 426.105 289.098 426.986 288.485 427.753C287.872 428.52 287.114 429.158 286.253 429.631C285.392 430.103 284.446 430.4 283.47 430.505L94.8881 451.768L94.043 451.823ZM74.8449 324.634L88.403 444.931C88.5738 446.429 89.3309 447.798 90.5085 448.738C91.6861 449.679 93.1883 450.114 94.686 449.948L283.268 428.686L283.379 429.605L283.268 428.686C284.006 428.612 284.722 428.391 285.372 428.034C286.023 427.677 286.594 427.192 287.053 426.609C287.982 425.436 288.412 423.944 288.247 422.456L274.689 302.122L74.8449 324.634Z" fill="#243762"/>
<path opacity="0.29" d="M274.542 429.605L104 450.849C100.326 451.271 156.855 378.81 156.451 375.19L73.8713 324.174C73.8662 324.128 73.8702 324.082 73.8832 324.038C73.8962 323.993 73.9179 323.952 73.9469 323.916C73.9759 323.88 74.0118 323.851 74.0524 323.829C74.0931 323.807 74.1376 323.793 74.1836 323.788L275.148 301.148C275.193 301.14 275.239 301.141 275.283 301.152C275.327 301.163 275.369 301.183 275.405 301.21C275.441 301.238 275.472 301.273 275.494 301.313C275.516 301.352 275.53 301.396 275.534 301.442L206.788 369.438C207.192 373.058 278.143 429.2 274.542 429.605Z" fill="#243762"/>
<path d="M74.184 323.788L157.296 241.569C159.702 239.183 162.841 237.677 166.207 237.294C169.573 236.911 172.971 237.672 175.851 239.455L274.634 300.817C274.675 300.83 274.711 300.855 274.737 300.89C274.762 300.925 274.776 300.967 274.776 301.01C274.776 301.053 274.762 301.095 274.737 301.13C274.711 301.164 274.675 301.19 274.634 301.203L73.835 323.825" fill="#F7A9B4"/>
<path d="M73.9452 324.744L73.7798 323.384L73.541 323.145L73.7431 322.943L156.635 240.925C159.188 238.381 162.526 236.773 166.107 236.363C169.688 235.953 173.303 236.764 176.366 238.665L275.149 300.045C275.345 300.168 275.497 300.35 275.586 300.563C275.675 300.777 275.695 301.014 275.645 301.24C275.602 301.47 275.486 301.681 275.314 301.84C275.142 301.999 274.922 302.098 274.689 302.122L73.9452 324.744ZM167.915 238.095C164.193 238.114 160.629 239.6 157.994 242.23L76.7009 322.576L272.43 300.523L175.374 240.227C173.131 238.844 170.55 238.106 167.915 238.095Z" fill="#243762"/>
<path opacity="0.29" d="M74.184 323.788L157.296 241.569C159.702 239.183 162.841 237.677 166.207 237.294C169.573 236.911 172.971 237.672 175.851 239.455L274.634 300.817C274.675 300.83 274.711 300.855 274.737 300.89C274.762 300.925 274.776 300.967 274.776 301.01C274.776 301.053 274.762 301.095 274.737 301.13C274.711 301.164 274.675 301.19 274.634 301.203L73.835 323.825" fill="#243762"/>
<path d="M166.481 362.509L104.019 449.47L274.56 430.248L194.314 359.385C192.336 357.638 190.014 356.324 187.498 355.529C184.982 354.734 182.327 354.476 179.705 354.77C177.082 355.064 174.551 355.905 172.273 357.238C169.996 358.571 168.023 360.367 166.481 362.509Z" fill="#F7A9B4"/>
<path d="M102.053 450.61L165.728 362.032L166.481 362.565L165.728 362.032C167.341 359.784 169.408 357.899 171.795 356.499C174.182 355.1 176.835 354.217 179.585 353.907C182.334 353.597 185.117 353.867 187.756 354.7C190.394 355.533 192.828 356.91 194.902 358.742L276.691 430.983L102.053 450.61ZM181.876 355.581C179.007 355.558 176.173 356.225 173.615 357.527C171.057 358.828 168.85 360.726 167.179 363.061L105.966 448.405L272.374 429.66L193.689 360.157C190.433 357.255 186.237 355.63 181.876 355.581Z" fill="#243762"/>
<path d="M84.3242 264.228L215.68 249.434C224.296 248.46 231.957 253.735 232.802 261.214L241.234 336.156L204.712 369.75L156.45 375.263L108.685 345.437L100.509 272.81L84.3242 264.228Z" fill="white"/>
<path d="M156.157 376.145L107.895 345.896L99.7199 273.325L87.209 262.978L215.588 248.515C219.834 247.99 224.126 249.014 227.677 251.401C229.328 252.48 230.723 253.908 231.764 255.585C232.805 257.261 233.466 259.145 233.702 261.104L242.208 336.451L205.117 370.559L156.157 376.145ZM109.622 344.812L156.653 374.216L204.308 368.85L240.279 335.771L231.884 261.269C231.671 259.571 231.091 257.94 230.184 256.49C229.276 255.039 228.063 253.804 226.629 252.871C223.442 250.739 219.595 249.826 215.79 250.298L87.4111 264.816L101.447 272.167L109.622 344.812Z" fill="#243762"/>
<path opacity="0.29" d="M166.481 355.012L104.019 449.471L274.56 430.248L194.314 351.887C192.337 350.137 190.016 348.821 187.499 348.025C184.983 347.228 182.327 346.969 179.704 347.263C177.08 347.558 174.548 348.399 172.271 349.734C169.993 351.069 168.021 352.867 166.481 355.012Z" fill="#243762"/>
<path d="M166.481 362.509L104.019 449.47L274.56 430.248L194.314 359.385C192.336 357.638 190.014 356.324 187.498 355.529C184.982 354.734 182.327 354.476 179.705 354.77C177.082 355.064 174.551 355.905 172.273 357.238C169.996 358.571 168.023 360.367 166.481 362.509Z" fill="#F7A9B4"/>
<path d="M102.053 450.61L165.728 362.032L166.481 362.565L165.728 362.032C167.341 359.784 169.408 357.899 171.795 356.499C174.182 355.1 176.835 354.217 179.585 353.907C182.334 353.597 185.117 353.867 187.756 354.7C190.394 355.533 192.828 356.91 194.902 358.742L276.691 430.983L102.053 450.61ZM181.876 355.581C179.007 355.558 176.173 356.225 173.615 357.527C171.057 358.828 168.85 360.726 167.179 363.061L105.966 448.405L272.374 429.66L193.689 360.157C190.433 357.255 186.237 355.63 181.876 355.581Z" fill="#243762"/>
<path opacity="0.35" d="M172.526 381.769L126.598 445.611L251.835 431.498L192.9 379.453C191.447 378.182 189.746 377.228 187.904 376.653C186.061 376.077 184.119 375.892 182.202 376.11C180.284 376.328 178.433 376.944 176.767 377.918C175.101 378.893 173.657 380.204 172.526 381.769Z" fill="#ECF1F7"/>
<path d="M74.7509 323.19L73.7793 324.749L155.963 375.98L156.935 374.421L74.7509 323.19Z" fill="#243762"/>
<path d="M274.86 300.623L206.148 368.879L207.443 370.183L276.155 301.927L274.86 300.623Z" fill="#243762"/>
<path d="M104.221 306.201L81.2938 308.738L77.6195 276.008C77.2992 273.109 78.1401 270.201 79.9581 267.921C81.776 265.641 84.423 264.174 87.3196 263.842L88.3667 263.713C91.2675 263.393 94.1768 264.237 96.4566 266.059C98.7365 267.882 100.201 270.534 100.529 273.435L104.221 306.201Z" fill="#ECF1F7"/>
<path d="M80.4854 309.803L76.7009 276.173C76.3497 273.03 77.2586 269.876 79.2285 267.403C81.1984 264.929 84.0685 263.338 87.2094 262.978L88.1831 262.794C89.7396 262.615 91.3162 262.746 92.8223 263.177C94.3285 263.609 95.7346 264.334 96.9601 265.311C98.1855 266.287 99.2062 267.496 99.9636 268.868C100.721 270.24 101.2 271.749 101.374 273.306L105.158 306.937L80.4854 309.803ZM89.6711 264.632C89.2915 264.632 88.9057 264.632 88.5137 264.632L87.4849 264.742C84.8243 265.047 82.3928 266.394 80.7228 268.488C79.0528 270.582 78.2804 273.253 78.5748 275.916L82.1572 307.708L103.266 305.338L99.5917 273.527C99.3046 270.877 97.9843 268.447 95.9174 266.764C94.1219 265.354 91.8982 264.602 89.616 264.632H89.6711Z" fill="#243762"/>
<path d="M119.781 289.166C119.559 289.163 119.345 289.08 119.18 288.931C119.014 288.782 118.908 288.578 118.881 288.357C118.866 288.238 118.875 288.116 118.908 288C118.94 287.883 118.996 287.775 119.071 287.681C119.147 287.586 119.24 287.508 119.347 287.451C119.453 287.393 119.569 287.358 119.69 287.347L214.853 276.614C215.097 276.585 215.342 276.654 215.535 276.805C215.728 276.957 215.853 277.179 215.882 277.423C215.911 277.667 215.843 277.912 215.691 278.105C215.54 278.298 215.317 278.423 215.074 278.452L119.892 289.184L119.781 289.166Z" fill="#243762"/>
<path d="M123.437 321.602C123.194 321.616 122.954 321.533 122.772 321.371C122.589 321.21 122.478 320.982 122.464 320.738C122.449 320.494 122.532 320.255 122.694 320.072C122.856 319.889 123.083 319.779 123.327 319.764L218.509 309.032C218.75 309.006 218.992 309.076 219.181 309.228C219.37 309.379 219.492 309.599 219.52 309.84C219.546 310.083 219.476 310.327 219.325 310.519C219.174 310.712 218.954 310.837 218.711 310.869L123.529 321.602H123.437Z" fill="#243762"/>
<path d="M121.582 305.172C121.338 305.185 121.1 305.099 120.919 304.936C120.738 304.772 120.63 304.543 120.617 304.3C120.605 304.056 120.69 303.817 120.854 303.636C121.018 303.455 121.246 303.347 121.49 303.335L162.605 298.704C162.849 298.674 163.094 298.743 163.287 298.895C163.48 299.046 163.605 299.269 163.634 299.512C163.663 299.756 163.594 300.001 163.443 300.194C163.291 300.387 163.069 300.512 162.826 300.541L121.692 305.172H121.582Z" fill="#243762"/>
<path d="M173.481 299.31C173.258 299.311 173.042 299.229 172.875 299.079C172.709 298.93 172.604 298.724 172.581 298.501C172.563 298.381 172.57 298.259 172.602 298.141C172.633 298.024 172.689 297.914 172.765 297.819C172.84 297.724 172.935 297.646 173.043 297.59C173.15 297.533 173.268 297.499 173.389 297.491L216.654 292.602C216.897 292.576 217.141 292.646 217.333 292.797C217.525 292.948 217.651 293.168 217.683 293.411C217.709 293.654 217.639 293.898 217.488 294.09C217.337 294.282 217.117 294.408 216.874 294.44L173.591 299.31H173.481Z" fill="#243762"/>
<path d="M125.494 339.979C125.272 339.976 125.058 339.893 124.892 339.744C124.727 339.595 124.621 339.391 124.594 339.17C124.579 339.05 124.588 338.927 124.62 338.81C124.653 338.692 124.708 338.582 124.783 338.487C124.858 338.391 124.952 338.311 125.058 338.252C125.165 338.193 125.282 338.155 125.403 338.141L166.518 333.51C166.761 333.484 167.004 333.554 167.197 333.705C167.389 333.856 167.514 334.076 167.547 334.319C167.573 334.562 167.503 334.806 167.352 334.998C167.201 335.19 166.981 335.316 166.738 335.348L125.605 339.979H125.494Z" fill="#243762"/>
</g>
<defs>
<clipPath id="clip0_4222_5594">
<rect width="585" height="489" fill="white"/>
</clipPath>
</defs>
</svg>
